<?xml version="1.0" encoding="UTF-8"?>
<svg width="32px" height="32px" viewBox="0 0 32 32" version="1.1" xmlns="http://www.w3.org/2000/svg" xmlns:xlink="http://www.w3.org/1999/xlink">
    <!-- Generator: Sketch 50.2 (55047) - http://www.bohemiancoding.com/sketch -->
    <title>globe-outline</title>
    <desc>Created with Sketch.</desc>
    <defs></defs>
    <g id="globe" stroke="none" stroke-width="1" fill="none" fill-rule="evenodd">
        <path d="M28.10585,23 L24.90985,23 C25.46385,21.168 25.80585,19.142 25.88785,17 L29.94985,17 C29.79385,19.174 29.14385,21.21 28.10585,23 L28.10585,23 Z M22.12585,28.57 C22.92385,27.556 23.62785,26.358 24.19985,25 L26.70785,25 C25.45385,26.49 23.89185,27.706 22.12585,28.57 L22.12585,28.57 Z M5.29185,25 L7.79985,25 C8.37385,26.358 9.07585,27.556 9.87585,28.57 C8.10785,27.706 6.54585,26.49 5.29185,25 L5.29185,25 Z M6.11185,17 C6.19385,19.142 6.53585,21.168 7.08985,23 L3.89385,23 C2.85585,21.21 2.20585,19.174 2.04985,17 L6.11185,17 Z M3.89385,9 L7.08985,9 C6.53585,10.832 6.19385,12.858 6.11185,15 L2.04985,15 C2.20585,12.826 2.85585,10.79 3.89385,9 L3.89385,9 Z M9.87585,3.43 C9.07585,4.444 8.37385,5.642 7.79985,7 L5.29185,7 C6.54585,5.51 8.10785,4.294 9.87585,3.43 L9.87585,3.43 Z M26.70785,7 L24.19985,7 C23.62785,5.642 22.92385,4.444 22.12585,3.43 C23.89185,4.294 25.45385,5.51 26.70785,7 L26.70785,7 Z M16.99985,15 L16.99985,9 L22.81185,9 C23.41585,10.8 23.79985,12.838 23.88985,15 L16.99985,15 Z M16.99985,29.87 L16.99985,25 L22.00585,25 C20.74985,27.602 18.97585,29.406 16.99985,29.87 L16.99985,29.87 Z M14.99985,25 L14.99985,29.87 C13.02385,29.406 11.25185,27.602 9.99385,25 L14.99985,25 Z M14.99985,2.13 L14.99985,7 L9.99385,7 C11.25185,4.398 13.02385,2.594 14.99985,2.13 L14.99985,2.13 Z M16.99985,2.13 C18.97585,2.594 20.74985,4.398 22.00585,7 L16.99985,7 L16.99985,2.13 Z M9.18785,9 L14.99985,9 L14.99985,15 L8.10985,15 C8.20185,12.838 8.58385,10.8 9.18785,9 L9.18785,9 Z M8.10985,17 L14.99985,17 L14.99985,23 L9.18785,23 C8.58385,21.2 8.20185,19.162 8.10985,17 L8.10985,17 Z M22.81185,23 L16.99985,23 L16.99985,17 L23.88985,17 C23.79985,19.162 23.41585,21.2 22.81185,23 L22.81185,23 Z M25.88785,15 C25.80585,12.858 25.46385,10.832 24.90985,9 L28.10585,9 C29.14385,10.79 29.79385,12.826 29.94985,15 L25.88785,15 Z M15.99985,0 C7.16385,0 -0.00015,7.164 -0.00015,16 C-0.00015,24.836 7.16385,32 15.99985,32 C24.83585,32 31.99985,24.836 31.99985,16 C31.99985,7.164 24.83585,0 15.99985,0 L15.99985,0 Z" id="Fill-1" fill="#212121"></path>
    </g>
</svg>