<?xml version="1.0" encoding="UTF-8"?>
<svg width="32px" height="32px" viewBox="0 0 32 32" version="1.1" xmlns="http://www.w3.org/2000/svg" xmlns:xlink="http://www.w3.org/1999/xlink">
    <!-- Generator: Sketch 50.2 (55047) - http://www.bohemiancoding.com/sketch -->
    <title>setting-outline</title>
    <desc>Created with Sketch.</desc>
    <defs></defs>
    <g id="setting" stroke="none" stroke-width="1" fill="none" fill-rule="evenodd">
        <path d="M20.77,0.479999989 C20.998,0.479999989 21.228,0.537999989 21.436,0.657999989 L26.562,3.61799999 C27.092,3.92399999 27.346,4.54999999 27.176,5.13799999 L26.322,8.12399999 C26.992,9.00199999 27.562,9.95999999 27.994,10.994 L30.988,11.742 C31.582,11.89 32,12.424 32,13.036 L32,18.954 C32,19.566 31.582,20.098 30.988,20.246 L27.994,20.996 C27.562,22.03 26.994,22.988 26.322,23.864 L27.176,26.85 C27.346,27.438 27.092,28.066 26.562,28.372 L21.436,31.33 C21.228,31.45 20.998,31.51 20.77,31.51 C20.418,31.51 20.07,31.37 19.812,31.102 L17.656,28.872 C17.112,28.942 16.562,28.99 16,28.99 C15.436,28.99 14.886,28.942 14.342,28.872 L12.186,31.102 C11.928,31.37 11.58,31.51 11.228,31.51 C11,31.51 10.77,31.45 10.562,31.33 L5.436,28.372 C4.906,28.066 4.652,27.438 4.822,26.85 L5.676,23.864 C5.004,22.988 4.436,22.03 4.004,20.996 L1.008,20.246 C0.416,20.098 0,19.566 0,18.954 L0,13.036 C0,12.424 0.416,11.89 1.008,11.742 L4.004,10.994 C4.436,9.95999999 5.004,9.00199999 5.676,8.12399999 L4.822,5.13799999 C4.652,4.54999999 4.906,3.92399999 5.436,3.61799999 L10.562,0.657999989 C10.77,0.537999989 11,0.479999989 11.228,0.479999989 C11.58,0.479999989 11.928,0.619999989 12.186,0.885999989 L14.342,3.11599999 C14.886,3.04599999 15.436,2.99999999 16,2.99999999 C16.562,2.99999999 17.112,3.04599999 17.656,3.11599999 L19.812,0.885999989 C20.07,0.619999989 20.418,0.479999989 20.77,0.479999989 Z M20.888,2.64999999 L19.094,4.50599999 L18.396,5.22599999 L17.402,5.09999999 C16.862,5.03199999 16.416,4.99999999 16,4.99999999 C15.582,4.99999999 15.136,5.03199999 14.596,5.09999999 L13.602,5.22799999 L12.906,4.50599999 L11.11,2.65199999 L6.888,5.08999999 L7.598,7.57399999 L7.874,8.53999999 L7.264,9.33799999 C6.676,10.11 6.2,10.926 5.85,11.764 L5.464,12.69 L4.49,12.934 L2,13.556 L2,18.434 L4.488,19.056 L5.462,19.298 L5.85,20.224 C6.2,21.064 6.676,21.88 7.264,22.65 L7.874,23.45 L7.598,24.414 L6.888,26.9 L11.11,29.338 L12.904,27.482 L13.602,26.762 L14.596,26.888 C15.136,26.958 15.582,26.99 16,26.99 C16.416,26.99 16.862,26.958 17.402,26.888 L18.396,26.762 L19.094,27.482 L20.888,29.338 L25.11,26.9 L24.4,24.414 L24.124,23.45 L24.734,22.65 C25.322,21.88 25.798,21.064 26.148,20.226 L26.534,19.3 L27.508,19.056 L30,18.432 L30,13.556 L27.508,12.934 L26.534,12.69 L26.148,11.764 C25.798,10.926 25.322,10.11 24.732,9.33799999 L24.124,8.53999999 L24.4,7.57399999 L25.11,5.08999999 L20.888,2.64999999 Z M15.9986,20.9946 C13.2406,20.9946 10.9986,18.7506 10.9986,15.9946 C10.9986,13.2386 13.2406,10.9946 15.9986,10.9946 C18.7566,10.9946 20.9986,13.2386 20.9986,15.9946 C20.9986,18.7506 18.7566,20.9946 15.9986,20.9946 Z M15.9986,12.9946 C14.3446,12.9946 12.9986,14.3406 12.9986,15.9946 C12.9986,17.6486 14.3446,18.9946 15.9986,18.9946 C17.6526,18.9946 18.9986,17.6486 18.9986,15.9946 C18.9986,14.3406 17.6526,12.9946 15.9986,12.9946 Z" id="Combined-Shape" fill="#212121"></path>
    </g>
</svg>