<?xml version="1.0" encoding="UTF-8"?>
<svg width="32px" height="32px" viewBox="0 0 32 32" version="1.1" xmlns="http://www.w3.org/2000/svg" xmlns:xlink="http://www.w3.org/1999/xlink">
    <!-- Generator: Sketch 50.2 (55047) - http://www.bohemiancoding.com/sketch -->
    <title>table-data-outline</title>
    <desc>Created with Sketch.</desc>
    <defs></defs>
    <g id="table-data" stroke="none" stroke-width="1" fill="none" fill-rule="evenodd">
        <path d="M32,12 L32,21 L32,23 L32,30 C32,30.976 31.104,32 30,32 L17,32 L15,32 L2,32 C0.896,32 0,30.976 0,30 L0,2 C0,1.024 0.896,0 2,0 L15,0 L17,0 L30,0 C31.104,0 32,1.024 32,2 L32,9 L32,12 Z M17,10 L30,10 L30,2 L17,2 L17,10 Z M2,10 L15,10 L15,2 L2,2 L2,10 Z M2,20 L15,20 L15,12 L2,12 L2,20 Z M2,30 L15,30 L15,22 L2,22 L2,30 Z M17,30 L30,30 L30,22 L17,22 L17,30 Z M17,20 L30,20 L30,12 L17,12 L17,20 Z" id="Combined-Shape" fill="#212121"></path>
    </g>
</svg>