<?xml version="1.0" encoding="UTF-8"?>
<svg width="32px" height="32px" viewBox="0 0 32 32" version="1.1" xmlns="http://www.w3.org/2000/svg" xmlns:xlink="http://www.w3.org/1999/xlink">
    <!-- Generator: Sketch 50.2 (55047) - http://www.bohemiancoding.com/sketch -->
    <title>toggle-outline</title>
    <desc>Created with Sketch.</desc>
    <defs></defs>
    <g id="toggle" stroke="none" stroke-width="1" fill="none" fill-rule="evenodd">
        <path d="M25.9997833,16.0012333 C23.0344747,16.0012333 20.5811618,13.8332514 20.1011658,11.001275 L0,11.001275 L0,9.00129166 L20.1011658,9.00129166 C20.5798285,6.16931526 23.0331414,4 25.9997833,4 C29.3077558,4 31.9997333,6.69197757 31.9997333,9.99995 C31.9997333,13.3092558 29.3077558,16.0012333 25.9997833,16.0012333 Z M25.9997833,5.99998333 C23.7944684,5.99998333 21.9998167,7.79463504 21.9998167,9.99995 C21.9998167,12.205265 23.7944684,14.00125 25.9997833,14.00125 C28.2050983,14.00125 29.99975,12.205265 29.99975,9.99995 C29.99975,7.79463504 28.2050983,5.99998333 25.9997833,5.99998333 Z M6.01729974,16 C9.00188041,16 11.4676361,18.184 11.9369855,21.0306667 L32,21.0306667 L32,23.0306667 L11.9302996,23.0306667 C11.436881,25.848 8.98182274,28 6.01729974,28 C2.69976182,28 0,25.3093333 0,22 C0,18.6906667 2.69976182,16 6.01729974,16 Z M5.99996667,25.9999333 C8.20528162,25.9999333 9.99993333,24.2052816 9.99993333,21.9999667 C9.99993333,19.7946517 8.20528162,18 5.99996667,18 C3.79465171,18 2,19.7946517 2,21.9999667 C2,24.2052816 3.79465171,25.9999333 5.99996667,25.9999333 Z" id="Combined-Shape" fill="#212121"></path>
    </g>
</svg>